HIERARCHY
ROOT SpineBase
{
  OFFSET 0.000000 0.000000 0.000000
  CHANNELS 6 Xposition Yposition Zposition Zrotation Xrotation Yrotation
  JOINT SpineMid
  {
    OFFSET 0.000000 30.884350 0.000000
    CHANNELS 3 Zrotation Xrotation Yrotation
    JOINT SpineShoulder
    {
      OFFSET 0.072247 22.778548 -1.063155
      CHANNELS 3 Zrotation Xrotation Yrotation
      JOINT Neck
      {
        OFFSET -0.044857 7.475234 -0.579282
        CHANNELS 3 Zrotation Xrotation Yrotation
        JOINT Head
        {
          OFFSET 2.847044 10.717420 5.284152
          CHANNELS 3 Zrotation Xrotation Yrotation
          End Site
          {
            OFFSET 0 0 0
          }
        }
      }
      JOINT ShoulderLeft
      {
        OFFSET -3.748648 -4.312989 -8.428518
        CHANNELS 3 Zrotation Xrotation Yrotation
        JOINT ElbowLeft
        {
          OFFSET -11.090345 -21.100981 -8.441713
          CHANNELS 3 Zrotation Xrotation Yrotation
          JOINT WristLeft
          {
            OFFSET -0.611892 -20.808581 2.432405
            CHANNELS 3 Zrotation Xrotation Yrotation
            JOINT HandLeft
            {
              OFFSET -0.252102 -4.229973 -0.667392
              CHANNELS 3 Zrotation Xrotation Yrotation
              JOINT HandTipLeft
              {
                OFFSET -2.643042 -6.546484 1.284452
                CHANNELS 3 Zrotation Xrotation Yrotation
                End Site
                {
                  OFFSET 0 0 0
                }
              }
              JOINT ThumbLeft
              {
                OFFSET -1.873737 -0.784554 -3.891195
                CHANNELS 3 Zrotation Xrotation Yrotation
                End Site
                {
                  OFFSET 0 0 0
                }
              }
            }
          }
        }
      }
      JOINT ShoulderRight
      {
        OFFSET 11.660581 -14.756999 6.969447
        CHANNELS 3 Zrotation Xrotation Yrotation
        JOINT ElbowRight
        {
          OFFSET -21.654410 -3.274956 -20.189190
          CHANNELS 3 Zrotation Xrotation Yrotation
          JOINT WristRight
          {
            OFFSET -13.638228 -17.171511 -8.560322
            CHANNELS 3 Zrotation Xrotation Yrotation
            JOINT HandRight
            {
              OFFSET 6.301741 -2.960517 3.650905
              CHANNELS 3 Zrotation Xrotation Yrotation
              JOINT HandTipRight
              {
                OFFSET 0.136749 -7.025708 -0.869636
                CHANNELS 3 Zrotation Xrotation Yrotation
                End Site
                {
                  OFFSET 0 0 0
                }
              }
              JOINT ThumbRight
              {
                OFFSET -0.320335 -3.701492 -2.054791
                CHANNELS 3 Zrotation Xrotation Yrotation
                End Site
                {
                  OFFSET 0 0 0
                }
              }
            }
          }
        }
      }
    }
  }
  JOINT HipLeft
  {
    OFFSET -4.597073 2.779931 -6.367860
    CHANNELS 3 Zrotation Xrotation Yrotation
    JOINT KneeLeft
    {
      OFFSET 1.161752 -29.023892 2.938631
      CHANNELS 3 Zrotation Xrotation Yrotation
      JOINT AnkleLeft
      {
        OFFSET -10.380187 -33.717104 1.644775
        CHANNELS 3 Zrotation Xrotation Yrotation
        JOINT FootLeft
        {
          OFFSET 6.897768 -3.464331 -9.100037
          CHANNELS 3 Zrotation Xrotation Yrotation
          End Site
          {
            OFFSET 0 0 0
          }
        }
      }
    }
  }
  JOINT HipRight
  {
    OFFSET 5.118844 -0.456826 -0.339689
    CHANNELS 3 Zrotation Xrotation Yrotation
    JOINT KneeRight
    {
      OFFSET -14.625308 -27.248166 9.743966
      CHANNELS 3 Zrotation Xrotation Yrotation
      JOINT AnkleRight
      {
        OFFSET -7.609582 -29.867951 -6.733533
        CHANNELS 3 Zrotation Xrotation Yrotation
        JOINT FootRight
        {
          OFFSET 5.404680 -4.703984 -6.979993
          CHANNELS 3 Zrotation Xrotation Yrotation
          End Site
          {
            OFFSET 0 0 0
          }
        }
      }
    }
  }
}
MOTION
Frames: 15
Frame Time: 0.033333
-13.510959 66.718539 248.998678 0.517668 -3.882183 -18.705724 -0.332534 1.106189 18.754533 -0.959752 -0.353189 -0.062637 0.626938 4.432276 -0.443980 0.000000 0.000000 0.000000 28.008427 -8.911158 -4.223120 -9.069696 16.575910 5.806622 2.253459 -17.004516 -1.680892 14.860239 16.545401 1.907523 0.000000 0.000000 0.000000 0.000000 0.000000 0.000000 41.664742 -42.760023 -15.541731 -13.561800 25.776512 19.356696 -145.385137 1.272070 71.122423 101.192939 -67.931455 25.603242 0.000000 0.000000 0.000000 0.000000 0.000000 0.000000 -6.340838 8.806038 19.267563 5.389230 -3.706647 -0.326112 -2.744450 -2.806939 0.657522 0.000000 0.000000 0.000000 -6.216856 3.881809 16.661894 9.330138 -19.207884 7.199675 -29.699204 37.394807 61.543451 0.000000 0.000000 0.000000
-13.532687 66.881924 249.085704 0.432254 -4.011493 -22.546215 -0.380414 1.106078 22.590616 -0.951087 -0.391793 -0.064395 0.609300 4.624653 -0.417845 0.000000 0.000000 0.000000 28.605479 -8.941571 -4.407734 -9.773492 16.541526 6.066895 0.650896 -18.686111 -1.304334 16.296842 18.284151 0.320342 0.000000 0.000000 0.000000 0.000000 0.000000 0.000000 42.035599 -42.842563 -15.239185 -12.348724 25.449299 19.079757 -140.877805 2.099965 74.283926 66.774286 -68.062238 -3.978847 0.000000 0.000000 0.000000 0.000000 0.000000 0.000000 -6.768598 8.045722 23.078829 5.481221 -3.223886 -0.328175 -2.762929 -2.810028 0.657015 0.000000 0.000000 0.000000 -5.954477 4.693257 20.363168 7.835068 -21.161746 7.827541 -29.438381 41.713970 63.497088 0.000000 0.000000 0.000000
-13.602827 67.123244 249.120755 0.296409 -4.068804 -26.687482 -0.379167 1.070370 26.723349 -0.936694 -0.432119 -0.066372 0.463713 4.883284 -0.336409 0.000000 0.000000 0.000000 29.112823 -8.895759 -4.624192 -10.518508 16.510393 6.333883 -0.657484 -22.469491 -0.446858 19.372769 20.874139 -1.843587 0.000000 0.000000 0.000000 0.000000 0.000000 0.000000 44.197452 -43.662904 -12.963069 -15.971086 26.863637 18.476211 -141.068650 2.372638 71.902372 76.968861 -68.467850 5.013479 0.000000 0.000000 0.000000 0.000000 0.000000 0.000000 -7.004608 7.094121 27.156196 5.559605 -2.631799 -0.333521 -2.792875 -2.801230 0.652313 0.000000 0.000000 0.000000 -5.494072 5.702567 24.429880 6.605829 -22.150568 7.979523 -24.476605 43.623718 55.540527 0.000000 0.000000 0.000000
-13.728818 67.206444 249.124896 0.091241 -4.073709 -31.178664 -0.347599 1.032660 31.200614 -0.926504 -0.477588 -0.070170 0.372969 5.071952 -0.244394 0.000000 0.000000 0.000000 29.575556 -9.058813 -4.607908 -10.977664 16.441676 6.433101 -2.767001 -26.109053 0.199504 23.911535 23.915888 -5.264127 0.000000 0.000000 0.000000 0.000000 0.000000 0.000000 47.671965 -44.796544 -9.241543 -19.942619 28.744205 17.200338 -142.861387 1.540928 70.219542 83.024690 -72.254672 9.092953 0.000000 0.000000 0.000000 0.000000 0.000000 0.000000 -6.956167 6.039183 31.556173 5.548047 -1.949988 -0.346046 -2.815828 -2.760509 0.639175 0.000000 0.000000 0.000000 -6.076543 4.895341 28.870596 8.425035 -19.730396 7.303466 -19.798758 38.047855 43.368806 0.000000 0.000000 0.000000
-13.880254 67.244193 249.113393 -0.147731 -4.048411 -34.900492 -0.295657 1.013148 34.905767 -0.916804 -0.512125 -0.074943 0.242379 5.195488 -0.105324 0.000000 0.000000 0.000000 30.013545 -9.348045 -4.455805 -11.126786 16.262150 6.444803 -6.384691 -29.751588 0.515165 32.706873 27.149885 -11.235914 0.000000 0.000000 0.000000 0.000000 0.000000 0.000000 52.075805 -45.925385 -4.468203 -23.897068 30.911321 15.524174 -148.355091 -0.116078 67.851447 101.012626 -67.522809 24.412383 0.000000 0.000000 0.000000 0.000000 0.000000 0.000000 -6.689704 5.204411 35.193384 5.493380 -1.343302 -0.361768 -2.832354 -2.719397 0.626418 0.000000 0.000000 0.000000 -5.968456 6.107571 32.363163 6.713753 -22.227569 8.133021 -11.170966 36.680837 28.637891 0.000000 0.000000 0.000000
-14.000678 67.223993 249.105521 -0.329397 -4.040228 -37.195624 -0.245433 0.982053 37.187829 -0.908079 -0.584230 -0.079731 0.046682 5.497881 0.030744 0.000000 0.000000 0.000000 30.267247 -9.548856 -4.288429 -10.958389 16.014914 6.375956 -11.775746 -31.974119 0.127628 38.645348 26.990037 -13.987887 0.000000 0.000000 0.000000 0.000000 0.000000 0.000000 56.701858 -46.689631 0.665400 -24.865986 32.390944 12.645027 -156.396874 -5.403514 69.660545 122.353054 -60.972067 39.838530 0.000000 0.000000 0.000000 0.000000 0.000000 0.000000 -6.506138 4.694464 37.431599 5.537271 -0.915799 -0.374359 -2.855078 -2.731247 0.628068 0.000000 0.000000 0.000000 -5.937621 5.939946 34.724831 6.596585 -21.970371 7.974497 -7.203557 29.824569 16.551648 0.000000 0.000000 0.000000
-14.075823 67.155070 249.095845 -0.452267 -4.033343 -37.721438 -0.213868 0.914108 37.704065 -0.931506 -0.663488 -0.086942 0.051035 5.835461 0.075783 0.000000 0.000000 0.000000 30.364365 -9.609824 -4.150004 -10.473471 15.634130 6.269193 -15.572098 -32.936252 -0.260781 41.865181 26.118079 -14.946941 0.000000 0.000000 0.000000 0.000000 0.000000 0.000000 61.134523 -47.075483 5.583675 -28.065597 34.521188 10.741388 -165.226020 -8.343785 67.266266 117.420104 -55.876593 35.640101 0.000000 0.000000 0.000000 0.000000 0.000000 0.000000 -6.423497 4.538327 37.932659 5.645205 -0.735501 -0.377227 -2.878898 -2.764841 0.635723 0.000000 0.000000 0.000000 -5.767684 6.379806 35.234470 5.672777 -22.969057 8.230409 -5.922888 28.408721 13.444848 0.000000 0.000000 0.000000
-14.127229 67.100377 249.095534 -0.546976 -4.049579 -39.306838 -0.239689 0.815994 39.281570 -0.943856 -0.736660 -0.094473 0.174608 6.141433 0.071193 0.000000 0.000000 0.000000 30.582900 -9.835069 -3.904632 -10.167128 15.382325 6.116200 -17.725828 -32.788867 -0.485141 41.399360 25.570793 -14.397835 0.000000 0.000000 0.000000 0.000000 0.000000 0.000000 64.775251 -47.134756 9.633981 -32.825292 37.030558 10.135722 -176.957455 -5.784018 59.352779 126.750345 -39.472504 45.588071 0.000000 0.000000 0.000000 0.000000 0.000000 0.000000 -6.354857 4.143548 39.473926 5.740426 -0.386971 -0.390357 -2.888734 -2.808455 0.647208 0.000000 0.000000 0.000000 -5.832399 8.319121 36.497897 2.959037 -26.937678 9.387245 -3.697726 30.493863 12.446243 0.000000 0.000000 0.000000
-13.988347 67.044200 249.108001 -0.338809 -4.102367 -40.539354 -0.457194 0.577218 40.526889 -0.946373 -0.833157 -0.099893 0.241240 6.466239 0.062893 0.000000 0.000000 0.000000 30.712192 -9.998992 -3.700397 -9.853281 15.121709 5.970880 -17.707460 -30.961853 -0.513899 39.743104 23.251016 -11.489979 0.000000 0.000000 0.000000 0.000000 0.000000 0.000000 67.108876 -47.021695 12.255003 -38.538219 39.466869 11.073325 169.280296 18.446438 40.311039 109.618849 -26.416404 52.257472 0.000000 0.000000 0.000000 0.000000 0.000000 0.000000 -6.833418 3.497948 40.652420 6.154156 -0.129289 -0.366995 -3.358585 -3.241557 1.200287 0.000000 0.000000 0.000000 -6.350436 9.245745 37.480540 1.384209 -29.589692 10.152429 -4.443625 33.036698 16.830630 0.000000 0.000000 0.000000
-14.018516 67.010819 249.097235 -0.524811 -4.090902 -41.173333 -0.268193 0.575020 41.147255 -1.061807 -0.839113 -0.107759 0.502463 6.630643 -0.004297 0.000000 0.000000 0.000000 30.863883 -10.136907 -3.524292 -9.584850 14.985852 5.835636 -16.976861 -29.106496 -0.520723 38.226061 21.812743 -9.446975 0.000000 0.000000 0.000000 0.000000 0.000000 0.000000 68.099623 -46.946866 13.216081 -44.488292 41.246585 13.539628 -139.437523 72.967498 -43.405798 74.115018 9.855120 101.116761 0.000000 0.000000 0.000000 0.000000 0.000000 0.000000 -6.693677 3.386200 41.262504 6.228949 0.033852 -0.372320 -3.424884 -3.243003 1.444511 0.000000 0.000000 0.000000 -6.334735 9.891471 38.010601 0.535192 -31.008404 10.505120 -2.191234 33.956858 14.123603 0.000000 0.000000 0.000000
-14.268121 67.026123 249.056874 -0.965218 -4.045304 -41.209776 -0.056557 0.612121 41.150575 -1.033310 -0.821326 -0.115583 0.912571 6.645709 -0.093128 0.000000 0.000000 0.000000 31.050240 -10.220935 -3.397012 -9.392310 15.015956 5.715139 -14.647377 -27.122060 -0.489444 34.322058 20.936855 -6.933210 0.000000 0.000000 0.000000 0.000000 0.000000 0.000000 67.344285 -46.967439 12.013800 -49.560286 41.713038 17.135125 -65.382585 26.097142 -126.458936 26.249581 4.233407 140.667651 0.000000 0.000000 0.000000 0.000000 0.000000 0.000000 -5.968868 3.813926 41.314621 5.822558 0.143576 -0.428217 -3.506684 -3.233704 1.736487 0.000000 0.000000 0.000000 -5.798041 10.284565 38.114522 0.251464 -30.991578 10.380099 -1.916201 34.374247 14.074774 0.000000 0.000000 0.000000
-14.797078 67.047741 248.930691 -1.764500 -3.888192 -41.274106 0.284620 0.735630 41.155905 -0.957884 -0.807058 -0.128602 1.484425 6.476999 -0.154025 0.000000 0.000000 0.000000 31.327030 -10.201860 -3.352449 -9.204921 15.150200 5.634032 -13.480408 -25.939110 -0.572948 34.196771 20.854685 -6.638417 0.000000 0.000000 0.000000 0.000000 0.000000 0.000000 68.109033 -46.954886 12.480432 -54.624368 42.514934 19.873719 -63.438116 -22.429133 -141.964653 -12.427350 -26.211214 158.200397 0.000000 0.000000 0.000000 0.000000 0.000000 0.000000 -4.445600 4.603202 41.392882 4.953702 0.358362 -0.534239 -3.640882 -3.201652 2.085272 0.000000 0.000000 0.000000 -4.539261 10.295636 38.508074 0.373300 -29.473342 9.665344 -2.637978 33.957543 14.601049 0.000000 0.000000 0.000000
-15.507536 67.088950 248.784929 -2.753622 -3.713511 -41.184032 0.632126 0.912354 40.994252 -0.865279 -0.797497 -0.146301 2.203651 6.194981 -0.199913 0.000000 0.000000 0.000000 31.740452 -10.070235 -3.422992 -9.181308 15.336468 5.646411 -10.140402 -24.822844 -0.540009 31.480524 19.984139 -4.472700 0.000000 0.000000 0.000000 0.000000 0.000000 0.000000 68.873874 -46.949692 12.813416 -62.869034 43.477108 24.412709 -45.742907 -56.985484 -115.744522 -51.926507 -25.742263 117.988964 0.000000 0.000000 0.000000 0.000000 0.000000 0.000000 -2.488233 5.736366 41.304856 3.744850 0.556225 -0.670190 -3.806239 -3.153579 2.487829 0.000000 0.000000 0.000000 -2.883971 9.949688 38.914343 1.085409 -26.772050 8.524752 -4.679942 32.485519 16.010262 0.000000 0.000000 0.000000
-16.314910 67.128848 248.643078 -3.819425 -3.544967 -40.975942 0.938271 1.096550 40.710981 -0.750473 -0.781861 -0.166181 3.016230 5.751057 -0.213854 0.000000 0.000000 0.000000 32.243753 -9.992078 -3.450058 -9.104609 15.355168 5.675840 -8.876897 -23.527441 -0.699087 30.917402 20.869220 -5.006161 0.000000 0.000000 0.000000 0.000000 0.000000 0.000000 69.599728 -46.947267 13.027284 -66.887247 43.675992 26.759417 -24.045444 -69.465207 -92.296253 -67.292644 -14.818412 102.285194 0.000000 0.000000 0.000000 0.000000 0.000000 0.000000 -0.343887 7.064694 41.065896 2.361200 0.708985 -0.818860 -3.961052 -3.132093 2.782567 0.000000 0.000000 0.000000 -1.010699 9.149004 39.343111 2.485089 -23.008390 6.951341 -5.650704 32.394960 16.583774 0.000000 0.000000 0.000000
-17.126699 67.182527 248.515220 -4.840508 -3.396044 -40.540744 1.179113 1.273870 40.206670 -0.617680 -0.763910 -0.184870 3.693973 5.274857 -0.150712 0.000000 0.000000 0.000000 32.922056 -10.071645 -3.420163 -9.264148 15.495020 5.721360 -8.523703 -21.742261 -1.012851 31.933373 20.727750 -5.201610 0.000000 0.000000 0.000000 0.000000 0.000000 0.000000 70.271598 -46.952173 13.198721 -67.951975 43.676187 27.408999 -14.395880 -75.675195 -84.728877 -79.635319 -4.718593 99.366895 0.000000 0.000000 0.000000 0.000000 0.000000 0.000000 1.795333 8.440211 40.561750 0.925857 0.782131 -0.964938 -4.094651 -3.117995 2.986235 0.000000 0.000000 0.000000 0.910963 9.799708 39.301489 1.755519 -22.090437 6.132977 -5.480965 32.699908 16.364563 0.000000 0.000000 0.000000
